<mxfile host="b6a6f06d-75e0-452e-ae4a-d551524eeb5d" modified="2020-09-24T22:36:37.714Z" agent="5.0 (X11; Linux x86_64) AppleWebKit/537.36 (KHTML, like Gecko) Code/1.49.1 Chrome/83.0.4103.122 Electron/9.2.1 Safari/537.36" etag="gQW1iZx7m9xfKEzHByMJ" version="13.1.3">
    <diagram id="Qwb1rF_dMpi1wpGuuUVu" name="Semaforo-Simple">
        <mxGraphModel dx="1952" dy="1285" grid="1" gridSize="10" guides="1" tooltips="1" connect="1" arrows="1" fold="1" page="1" pageScale="1" pageWidth="850" pageHeight="1100" math="0" shadow="0">
            <root>
                <mxCell id="0"/>
                <mxCell id="1" parent="0"/>
                <mxCell id="3" value="" style="rounded=0;whiteSpace=wrap;html=1;" parent="1" vertex="1">
                    <mxGeometry x="90" y="20" width="1560" height="820" as="geometry"/>
                </mxCell>
                <mxCell id="13" value="" style="rounded=1;whiteSpace=wrap;html=1;dashed=1;" vertex="1" parent="1">
                    <mxGeometry x="188.5" y="380" width="1380" height="160" as="geometry"/>
                </mxCell>
                <mxCell id="G4ZIIX9ekKNboTHv59yJ-3" style="edgeStyle=orthogonalEdgeStyle;rounded=0;orthogonalLoop=1;jettySize=auto;html=1;" parent="1" source="G4ZIIX9ekKNboTHv59yJ-1" target="G4ZIIX9ekKNboTHv59yJ-4" edge="1">
                    <mxGeometry relative="1" as="geometry">
                        <mxPoint x="248.5" y="260" as="targetPoint"/>
                    </mxGeometry>
                </mxCell>
                <mxCell id="G4ZIIX9ekKNboTHv59yJ-8" style="edgeStyle=orthogonalEdgeStyle;rounded=0;orthogonalLoop=1;jettySize=auto;html=1;entryX=0.5;entryY=0;entryDx=0;entryDy=0;" parent="1" source="G4ZIIX9ekKNboTHv59yJ-1" target="G4ZIIX9ekKNboTHv59yJ-2" edge="1">
                    <mxGeometry relative="1" as="geometry"/>
                </mxCell>
                <mxCell id="G4ZIIX9ekKNboTHv59yJ-1" value="&lt;font color=&quot;#030303&quot;&gt;setup&lt;/font&gt;" style="rounded=1;whiteSpace=wrap;html=1;fillColor=#fff2cc;strokeColor=#d6b656;" parent="1" vertex="1">
                    <mxGeometry x="188.5" y="160" width="120" height="60" as="geometry"/>
                </mxCell>
                <mxCell id="G4ZIIX9ekKNboTHv59yJ-9" style="edgeStyle=orthogonalEdgeStyle;rounded=0;orthogonalLoop=1;jettySize=auto;html=1;entryX=0.5;entryY=0;entryDx=0;entryDy=0;" parent="1" source="G4ZIIX9ekKNboTHv59yJ-2" edge="1" target="G4ZIIX9ekKNboTHv59yJ-10">
                    <mxGeometry relative="1" as="geometry">
                        <mxPoint x="248.5" y="400" as="targetPoint"/>
                    </mxGeometry>
                </mxCell>
                <mxCell id="G4ZIIX9ekKNboTHv59yJ-2" value="&lt;span style=&quot;background-color: rgb(255 , 242 , 204)&quot;&gt;&lt;font color=&quot;#030303&quot;&gt;loop&lt;/font&gt;&lt;/span&gt;" style="rounded=1;whiteSpace=wrap;html=1;fillColor=#fff2cc;strokeColor=#d6b656;" parent="1" vertex="1">
                    <mxGeometry x="188.5" y="290" width="120" height="60" as="geometry"/>
                </mxCell>
                <mxCell id="G4ZIIX9ekKNboTHv59yJ-5" style="edgeStyle=orthogonalEdgeStyle;rounded=0;orthogonalLoop=1;jettySize=auto;html=1;entryX=0.5;entryY=0;entryDx=0;entryDy=0;exitX=0.5;exitY=1;exitDx=0;exitDy=0;" parent="1" source="7" target="G4ZIIX9ekKNboTHv59yJ-2" edge="1">
                    <mxGeometry relative="1" as="geometry">
                        <mxPoint x="578.5" y="210" as="sourcePoint"/>
                        <Array as="points">
                            <mxPoint x="613.5" y="250"/>
                            <mxPoint x="248.5" y="250"/>
                        </Array>
                    </mxGeometry>
                </mxCell>
                <mxCell id="8" value="" style="edgeStyle=orthogonalEdgeStyle;rounded=0;orthogonalLoop=1;jettySize=auto;html=1;" edge="1" parent="1" source="G4ZIIX9ekKNboTHv59yJ-4" target="7">
                    <mxGeometry relative="1" as="geometry"/>
                </mxCell>
                <mxCell id="G4ZIIX9ekKNboTHv59yJ-4" value="Definir 12 pines de salida" style="rounded=0;whiteSpace=wrap;html=1;" parent="1" vertex="1">
                    <mxGeometry x="353.5" y="170" width="120" height="40" as="geometry"/>
                </mxCell>
                <mxCell id="7" value="Encender LEDs Rojos" style="rounded=0;whiteSpace=wrap;html=1;" vertex="1" parent="1">
                    <mxGeometry x="553.5" y="170" width="120" height="40" as="geometry"/>
                </mxCell>
                <mxCell id="G4ZIIX9ekKNboTHv59yJ-12" value="" style="edgeStyle=orthogonalEdgeStyle;rounded=0;orthogonalLoop=1;jettySize=auto;html=1;" parent="1" source="G4ZIIX9ekKNboTHv59yJ-10" target="G4ZIIX9ekKNboTHv59yJ-11" edge="1">
                    <mxGeometry relative="1" as="geometry"/>
                </mxCell>
                <mxCell id="G4ZIIX9ekKNboTHv59yJ-10" value="Esperar 1 seg" style="rounded=0;whiteSpace=wrap;html=1;" parent="1" vertex="1">
                    <mxGeometry x="198.5" y="420" width="100" height="40" as="geometry"/>
                </mxCell>
                <mxCell id="G4ZIIX9ekKNboTHv59yJ-16" style="edgeStyle=orthogonalEdgeStyle;rounded=0;orthogonalLoop=1;jettySize=auto;html=1;entryX=0;entryY=0.5;entryDx=0;entryDy=0;" parent="1" source="G4ZIIX9ekKNboTHv59yJ-11" target="G4ZIIX9ekKNboTHv59yJ-15" edge="1">
                    <mxGeometry relative="1" as="geometry"/>
                </mxCell>
                <mxCell id="G4ZIIX9ekKNboTHv59yJ-11" value="Encender LED&amp;nbsp; Amarillo" style="whiteSpace=wrap;html=1;rounded=0;" parent="1" vertex="1">
                    <mxGeometry x="328.5" y="420" width="120" height="40" as="geometry"/>
                </mxCell>
                <mxCell id="11" value="" style="edgeStyle=orthogonalEdgeStyle;rounded=0;orthogonalLoop=1;jettySize=auto;html=1;" edge="1" parent="1" source="G4ZIIX9ekKNboTHv59yJ-15" target="10">
                    <mxGeometry relative="1" as="geometry"/>
                </mxCell>
                <mxCell id="G4ZIIX9ekKNboTHv59yJ-15" value="Apagar LED Rojo" style="whiteSpace=wrap;html=1;rounded=0;" parent="1" vertex="1">
                    <mxGeometry x="478.5" y="420" width="120" height="40" as="geometry"/>
                </mxCell>
                <mxCell id="19" value="" style="edgeStyle=orthogonalEdgeStyle;rounded=0;orthogonalLoop=1;jettySize=auto;html=1;" edge="1" parent="1" source="10" target="18">
                    <mxGeometry relative="1" as="geometry"/>
                </mxCell>
                <mxCell id="10" value="Esperar 1 seg" style="whiteSpace=wrap;html=1;rounded=0;" vertex="1" parent="1">
                    <mxGeometry x="628.5" y="420" width="120" height="40" as="geometry"/>
                </mxCell>
                <mxCell id="21" value="" style="edgeStyle=orthogonalEdgeStyle;rounded=0;orthogonalLoop=1;jettySize=auto;html=1;" edge="1" parent="1" source="18" target="20">
                    <mxGeometry relative="1" as="geometry"/>
                </mxCell>
                <mxCell id="18" value="Encender LED Verde" style="whiteSpace=wrap;html=1;rounded=0;" vertex="1" parent="1">
                    <mxGeometry x="778.5" y="420" width="120" height="40" as="geometry"/>
                </mxCell>
                <mxCell id="23" value="" style="edgeStyle=orthogonalEdgeStyle;rounded=0;orthogonalLoop=1;jettySize=auto;html=1;" edge="1" parent="1" source="20" target="22">
                    <mxGeometry relative="1" as="geometry"/>
                </mxCell>
                <mxCell id="20" value="Apagar LED Amarillo" style="whiteSpace=wrap;html=1;rounded=0;" vertex="1" parent="1">
                    <mxGeometry x="948.5" y="420" width="120" height="40" as="geometry"/>
                </mxCell>
                <mxCell id="25" value="" style="edgeStyle=orthogonalEdgeStyle;rounded=0;orthogonalLoop=1;jettySize=auto;html=1;" edge="1" parent="1" source="22" target="24">
                    <mxGeometry relative="1" as="geometry"/>
                </mxCell>
                <mxCell id="22" value="Esperar&amp;nbsp; 5 seg" style="whiteSpace=wrap;html=1;rounded=0;" vertex="1" parent="1">
                    <mxGeometry x="1108.5" y="420" width="120" height="40" as="geometry"/>
                </mxCell>
                <mxCell id="27" value="" style="edgeStyle=orthogonalEdgeStyle;rounded=0;orthogonalLoop=1;jettySize=auto;html=1;" edge="1" parent="1" source="24" target="26">
                    <mxGeometry relative="1" as="geometry"/>
                </mxCell>
                <mxCell id="24" value="Apagar LED Verde" style="whiteSpace=wrap;html=1;rounded=0;" vertex="1" parent="1">
                    <mxGeometry x="1269.5" y="420" width="120" height="40" as="geometry"/>
                </mxCell>
                <mxCell id="26" value="Encender LED Rojo" style="whiteSpace=wrap;html=1;rounded=0;" vertex="1" parent="1">
                    <mxGeometry x="1428.5" y="420" width="120" height="40" as="geometry"/>
                </mxCell>
                <mxCell id="2" value="&lt;span style=&quot;font-size: 24px&quot;&gt;&lt;b&gt;&lt;u&gt;SemÃ¡foros Cruzados&lt;/u&gt;&lt;/b&gt;&lt;/span&gt;" style="text;html=1;strokeColor=none;fillColor=none;align=center;verticalAlign=middle;whiteSpace=wrap;rounded=0;" parent="1" vertex="1">
                    <mxGeometry x="678.5" y="60" width="270" height="20" as="geometry"/>
                </mxCell>
                <mxCell id="6" value="@okarook" style="text;html=1;strokeColor=none;fillColor=none;align=center;verticalAlign=middle;whiteSpace=wrap;rounded=0;" parent="1" vertex="1">
                    <mxGeometry x="1518.5" y="790" width="50" height="20" as="geometry"/>
                </mxCell>
                <mxCell id="17" value="Semaforo 1" style="text;html=1;strokeColor=none;fillColor=none;align=center;verticalAlign=middle;whiteSpace=wrap;rounded=0;dashed=1;fontStyle=1" vertex="1" parent="1">
                    <mxGeometry x="258.5" y="390" width="80" height="20" as="geometry"/>
                </mxCell>
                <mxCell id="28" value="" style="rounded=1;whiteSpace=wrap;html=1;dashed=1;" vertex="1" parent="1">
                    <mxGeometry x="191.5" y="590" width="1380" height="160" as="geometry"/>
                </mxCell>
                <mxCell id="29" value="" style="edgeStyle=orthogonalEdgeStyle;rounded=0;orthogonalLoop=1;jettySize=auto;html=1;" edge="1" parent="1" source="30" target="32">
                    <mxGeometry relative="1" as="geometry"/>
                </mxCell>
                <mxCell id="48" style="edgeStyle=orthogonalEdgeStyle;rounded=0;orthogonalLoop=1;jettySize=auto;html=1;entryX=0;entryY=0.5;entryDx=0;entryDy=0;" edge="1" parent="1" source="30" target="G4ZIIX9ekKNboTHv59yJ-2">
                    <mxGeometry relative="1" as="geometry">
                        <Array as="points">
                            <mxPoint x="251.5" y="710"/>
                            <mxPoint x="168.5" y="710"/>
                            <mxPoint x="168.5" y="320"/>
                        </Array>
                    </mxGeometry>
                </mxCell>
                <mxCell id="30" value="Esperar 1 seg" style="rounded=0;whiteSpace=wrap;html=1;" vertex="1" parent="1">
                    <mxGeometry x="201.5" y="630" width="100" height="40" as="geometry"/>
                </mxCell>
                <mxCell id="31" style="edgeStyle=orthogonalEdgeStyle;rounded=0;orthogonalLoop=1;jettySize=auto;html=1;entryX=0;entryY=0.5;entryDx=0;entryDy=0;" edge="1" parent="1" source="32" target="34">
                    <mxGeometry relative="1" as="geometry"/>
                </mxCell>
                <mxCell id="32" value="Encender LED&amp;nbsp; Amarillo" style="whiteSpace=wrap;html=1;rounded=0;" vertex="1" parent="1">
                    <mxGeometry x="331.5" y="630" width="120" height="40" as="geometry"/>
                </mxCell>
                <mxCell id="33" value="" style="edgeStyle=orthogonalEdgeStyle;rounded=0;orthogonalLoop=1;jettySize=auto;html=1;" edge="1" parent="1" source="34" target="36">
                    <mxGeometry relative="1" as="geometry"/>
                </mxCell>
                <mxCell id="34" value="Apagar LED Rojo" style="whiteSpace=wrap;html=1;rounded=0;" vertex="1" parent="1">
                    <mxGeometry x="481.5" y="630" width="120" height="40" as="geometry"/>
                </mxCell>
                <mxCell id="35" value="" style="edgeStyle=orthogonalEdgeStyle;rounded=0;orthogonalLoop=1;jettySize=auto;html=1;" edge="1" parent="1" source="36" target="38">
                    <mxGeometry relative="1" as="geometry"/>
                </mxCell>
                <mxCell id="36" value="Esperar 1 seg" style="whiteSpace=wrap;html=1;rounded=0;" vertex="1" parent="1">
                    <mxGeometry x="631.5" y="630" width="120" height="40" as="geometry"/>
                </mxCell>
                <mxCell id="37" value="" style="edgeStyle=orthogonalEdgeStyle;rounded=0;orthogonalLoop=1;jettySize=auto;html=1;" edge="1" parent="1" source="38" target="40">
                    <mxGeometry relative="1" as="geometry"/>
                </mxCell>
                <mxCell id="38" value="Encender LED Verde" style="whiteSpace=wrap;html=1;rounded=0;" vertex="1" parent="1">
                    <mxGeometry x="781.5" y="630" width="120" height="40" as="geometry"/>
                </mxCell>
                <mxCell id="39" value="" style="edgeStyle=orthogonalEdgeStyle;rounded=0;orthogonalLoop=1;jettySize=auto;html=1;" edge="1" parent="1" source="40" target="42">
                    <mxGeometry relative="1" as="geometry"/>
                </mxCell>
                <mxCell id="40" value="Apagar LED Amarillo" style="whiteSpace=wrap;html=1;rounded=0;" vertex="1" parent="1">
                    <mxGeometry x="951.5" y="630" width="120" height="40" as="geometry"/>
                </mxCell>
                <mxCell id="41" value="" style="edgeStyle=orthogonalEdgeStyle;rounded=0;orthogonalLoop=1;jettySize=auto;html=1;" edge="1" parent="1" source="42" target="44">
                    <mxGeometry relative="1" as="geometry"/>
                </mxCell>
                <mxCell id="42" value="Esperar&amp;nbsp; 5 seg" style="whiteSpace=wrap;html=1;rounded=0;" vertex="1" parent="1">
                    <mxGeometry x="1111.5" y="630" width="120" height="40" as="geometry"/>
                </mxCell>
                <mxCell id="43" value="" style="edgeStyle=orthogonalEdgeStyle;rounded=0;orthogonalLoop=1;jettySize=auto;html=1;" edge="1" parent="1" source="44" target="45">
                    <mxGeometry relative="1" as="geometry"/>
                </mxCell>
                <mxCell id="44" value="Apagar LED Verde" style="whiteSpace=wrap;html=1;rounded=0;" vertex="1" parent="1">
                    <mxGeometry x="1272.5" y="630" width="120" height="40" as="geometry"/>
                </mxCell>
                <mxCell id="47" style="edgeStyle=orthogonalEdgeStyle;rounded=0;orthogonalLoop=1;jettySize=auto;html=1;entryX=0;entryY=0.5;entryDx=0;entryDy=0;" edge="1" parent="1" source="45" target="G4ZIIX9ekKNboTHv59yJ-2">
                    <mxGeometry relative="1" as="geometry">
                        <mxPoint x="1018.4999999999995" y="880" as="targetPoint"/>
                        <Array as="points">
                            <mxPoint x="1491.5" y="710"/>
                            <mxPoint x="168.5" y="710"/>
                            <mxPoint x="168.5" y="320"/>
                        </Array>
                    </mxGeometry>
                </mxCell>
                <mxCell id="45" value="Encender LED Rojo" style="whiteSpace=wrap;html=1;rounded=0;" vertex="1" parent="1">
                    <mxGeometry x="1431.5" y="630" width="120" height="40" as="geometry"/>
                </mxCell>
                <mxCell id="46" value="Semaforo N" style="text;html=1;strokeColor=none;fillColor=none;align=center;verticalAlign=middle;whiteSpace=wrap;rounded=0;dashed=1;fontStyle=1" vertex="1" parent="1">
                    <mxGeometry x="261.5" y="600" width="80" height="20" as="geometry"/>
                </mxCell>
                <mxCell id="G4ZIIX9ekKNboTHv59yJ-23" value="" style="edgeStyle=orthogonalEdgeStyle;rounded=0;orthogonalLoop=1;jettySize=auto;html=1;entryX=0.5;entryY=0;entryDx=0;entryDy=0;" parent="1" source="G4ZIIX9ekKNboTHv59yJ-10" target="30" edge="1">
                    <mxGeometry relative="1" as="geometry">
                        <mxPoint x="248.5" y="600" as="targetPoint"/>
                        <Array as="points">
                            <mxPoint x="248.5" y="630"/>
                        </Array>
                    </mxGeometry>
                </mxCell>
                <mxCell id="G4ZIIX9ekKNboTHv59yJ-18" style="edgeStyle=orthogonalEdgeStyle;rounded=0;orthogonalLoop=1;jettySize=auto;html=1;exitX=0.5;exitY=1;exitDx=0;exitDy=0;entryX=0.5;entryY=0;entryDx=0;entryDy=0;" parent="1" source="26" target="30" edge="1">
                    <mxGeometry relative="1" as="geometry">
                        <mxPoint x="248.5" y="560" as="targetPoint"/>
                        <Array as="points">
                            <mxPoint x="1488.5" y="500"/>
                            <mxPoint x="248.5" y="500"/>
                            <mxPoint x="248.5" y="630"/>
                        </Array>
                    </mxGeometry>
                </mxCell>
            </root>
        </mxGraphModel>
    </diagram>
</mxfile>
